<?xml version="1.0" encoding="UTF-8" standalone="no"?>
<!-- Created with Inkscape (http://www.inkscape.org/) -->

<svg
   version="1.1"
   id="svg1"
   width="1136"
   height="717"
   viewBox="0 0 1136 717"
   sodipodi:docname="svg.svg"
   inkscape:version="1.3 (0e150ed, 2023-07-21)"
   xmlns:inkscape="http://www.inkscape.org/namespaces/inkscape"
   xmlns:sodipodi="http://sodipodi.sourceforge.net/DTD/sodipodi-0.dtd"
   xmlns:xlink="http://www.w3.org/1999/xlink"
   xmlns="http://www.w3.org/2000/svg"
   xmlns:svg="http://www.w3.org/2000/svg">
  <defs
     id="defs1" />
  <g
     inkscape:groupmode="layer"
     id="landmarks-map"
     inkscape:label="landmarks-map"
     transform="translate(-4.9866943,11.396788)">
    <g
       inkscape:groupmode="layer"
       inkscape:label="Layer 1"
       id="g1"
       sodipodi:insensitive="true">
      <image
         width="1136"
         height="717"
         preserveAspectRatio="none"
         xlink:href="src/mapplic/map/image1.jpeg"
         id="image1"
         x="4.9866943"
         y="-11.396788"
         inkscape:label="image1" />
    </g>
    <path
       d="m 309.89453,89.640625 0.6875,64.966795 -85.53125,0.90625 -0.69726,-65.873045 H 152.56055 V 231.87695 H 384.05273 V 89.640625 Z"
       style="fill:#000000;fill-opacity:0.142684;stroke-width:0.997"
       id="h-block"
       inkscape:label="h-block"
       sodipodi:insensitive="true" />
    <path
       id="g-block"
       style="fill:#000000;fill-opacity:0.142684;stroke-width:0.997"
       d="M 543.61169 84.118837 L 470.97693 84.118837 L 470.97693 225.12665 L 579.87927 225.12665 L 579.87927 84.118837 L 576.37537 84.118837 L 576.37537 195.9411 L 543.61169 195.9411 L 543.61169 84.118837 z "
       inkscape:label="g-block" />
    <rect
       style="fill:#000000;fill-opacity:0.14;stroke-width:0.997"
       id="f-block"
       width="65.584923"
       height="138.88014"
       x="579.68066"
       y="84.639153"
       inkscape:label="f-block"
       inkscape:export-filename="map-extract.svg"
       inkscape:export-xdpi="96"
       inkscape:export-ydpi="96"
       sodipodi:insensitive="true" />
    <rect
       style="fill:#000000;fill-opacity:0.142684;stroke-width:0.997"
       id="e-block"
       width="62.898708"
       height="119.17065"
       x="655.71075"
       y="106.65669"
       inkscape:label="e-block"
       sodipodi:insensitive="true" />
    <rect
       style="fill:#000000;fill-opacity:0.142684;stroke-width:0.997"
       id="d-block"
       width="65.617012"
       height="119.42148"
       x="745.05408"
       y="107.55822"
       inkscape:label="d-block"
       sodipodi:insensitive="true" />
    <path
       id="c-block"
       style="fill:#000000;fill-opacity:0.142684;stroke-width:0.997"
       d="M 837.53748 108.08759 L 837.53748 184.30048 L 924.59607 184.30048 L 924.59607 171.56024 L 951.90857 171.56024 L 951.90857 184.30048 L 952.99841 184.30048 L 952.99841 108.08759 L 951.88123 108.08759 L 951.88123 119.7497 L 922.3324 119.7497 L 922.3324 108.08759 L 837.53748 108.08759 z "
       inkscape:label="c-block" />
    <path
       id="b-block"
       style="fill:#000000;fill-opacity:0.142684;stroke-width:0.997"
       d="m 841.6565,227.98089 v 76.52148 h 71.44727 v 31.03125 h 48.69922 v -31.03125 h 2.95312 v -76.52148 z"
       inkscape:label="b-block" />
    <path
       id="a-block"
       style="fill:#000000;fill-opacity:0.142684;stroke-width:0.942369"
       d="m 841.28443,431.86139 v -68.36521 h 71.44727 v -27.72369 h 48.69922 v 27.72369 h 2.95312 v 68.36521 z"
       inkscape:label="a-block" />
  </g>
</svg>
