<?xml version="1.0" encoding="UTF-8" standalone="no"?>
<svg
   width="178"
   height="38"
   viewBox="0 0 178 38"
   fill="none"
   version="1.1"
   id="svg11"
   sodipodi:docname="logo-dark.svg"
   inkscape:version="1.3.2 (091e20e, 2023-11-25)"
   xmlns:inkscape="http://www.inkscape.org/namespaces/inkscape"
   xmlns:sodipodi="http://sodipodi.sourceforge.net/DTD/sodipodi-0.dtd"
   xmlns="http://www.w3.org/2000/svg"
   xmlns:svg="http://www.w3.org/2000/svg">
  <sodipodi:namedview
     id="namedview11"
     pagecolor="#505050"
     bordercolor="#eeeeee"
     borderopacity="1"
     inkscape:showpageshadow="0"
     inkscape:pageopacity="0"
     inkscape:pagecheckerboard="0"
     inkscape:deskcolor="#505050"
     showgrid="false"
     inkscape:zoom="4.3260634"
     inkscape:cx="121.5886"
     inkscape:cy="9.36186"
     inkscape:window-width="1920"
     inkscape:window-height="1011"
     inkscape:window-x="0"
     inkscape:window-y="0"
     inkscape:window-maximized="1"
     inkscape:current-layer="svg11" />
  <path
     d="M0 8.42105C0 3.77023 3.77023 0 8.42105 0H23.5789C28.2298 0 32 3.77023 32 8.42105V23.5789C32 28.2298 28.2298 32 23.5789 32H8.42105C3.77023 32 0 28.2298 0 23.5789V8.42105Z"
     fill="#3C50E0"
     id="path1" />
  <defs
     id="defs11">
    <rect
       x="31.601695"
       y="-26.079209"
       width="138.67707"
       height="17.522787"
       id="rect1" />
    <filter
       id="filter0_d_1_22"
       x="7.42139"
       y="6.23706"
       width="5.36841"
       height="20.5263"
       filterUnits="userSpaceOnUse"
       color-interpolation-filters="sRGB">
      <feFlood
         flood-opacity="0"
         result="BackgroundImageFix"
         id="feFlood5" />
      <feColorMatrix
         in="SourceAlpha"
         type="matrix"
         values="0 0 0 0 0 0 0 0 0 0 0 0 0 0 0 0 0 0 127 0"
         result="hardAlpha"
         id="feColorMatrix5" />
      <feOffset
         dy="0.5"
         id="feOffset5" />
      <feGaussianBlur
         stdDeviation="0.5"
         id="feGaussianBlur5" />
      <feComposite
         in2="hardAlpha"
         operator="out"
         id="feComposite5" />
      <feColorMatrix
         type="matrix"
         values="0 0 0 0 0 0 0 0 0 0 0 0 0 0 0 0 0 0 0.12 0"
         id="feColorMatrix6" />
      <feBlend
         mode="normal"
         in2="BackgroundImageFix"
         result="effect1_dropShadow_1_22"
         id="feBlend6" />
      <feBlend
         mode="normal"
         in="SourceGraphic"
         in2="effect1_dropShadow_1_22"
         result="shape"
         id="feBlend7" />
    </filter>
    <filter
       id="filter1_d_1_22"
       x="13.7368"
       y="12.9734"
       width="5.36839"
       height="13.7895"
       filterUnits="userSpaceOnUse"
       color-interpolation-filters="sRGB">
      <feFlood
         flood-opacity="0"
         result="BackgroundImageFix"
         id="feFlood7" />
      <feColorMatrix
         in="SourceAlpha"
         type="matrix"
         values="0 0 0 0 0 0 0 0 0 0 0 0 0 0 0 0 0 0 127 0"
         result="hardAlpha"
         id="feColorMatrix7" />
      <feOffset
         dy="0.5"
         id="feOffset7" />
      <feGaussianBlur
         stdDeviation="0.5"
         id="feGaussianBlur7" />
      <feComposite
         in2="hardAlpha"
         operator="out"
         id="feComposite7" />
      <feColorMatrix
         type="matrix"
         values="0 0 0 0 0 0 0 0 0 0 0 0 0 0 0 0 0 0 0.12 0"
         id="feColorMatrix8" />
      <feBlend
         mode="normal"
         in2="BackgroundImageFix"
         result="effect1_dropShadow_1_22"
         id="feBlend8" />
      <feBlend
         mode="normal"
         in="SourceGraphic"
         in2="effect1_dropShadow_1_22"
         result="shape"
         id="feBlend9" />
    </filter>
    <filter
       id="filter2_d_1_22"
       x="20.0522"
       y="8.7627"
       width="5.3685"
       height="18"
       filterUnits="userSpaceOnUse"
       color-interpolation-filters="sRGB">
      <feFlood
         flood-opacity="0"
         result="BackgroundImageFix"
         id="feFlood9" />
      <feColorMatrix
         in="SourceAlpha"
         type="matrix"
         values="0 0 0 0 0 0 0 0 0 0 0 0 0 0 0 0 0 0 127 0"
         result="hardAlpha"
         id="feColorMatrix9" />
      <feOffset
         dy="0.5"
         id="feOffset9" />
      <feGaussianBlur
         stdDeviation="0.5"
         id="feGaussianBlur9" />
      <feComposite
         in2="hardAlpha"
         operator="out"
         id="feComposite9" />
      <feColorMatrix
         type="matrix"
         values="0 0 0 0 0 0 0 0 0 0 0 0 0 0 0 0 0 0 0.12 0"
         id="feColorMatrix10" />
      <feBlend
         mode="normal"
         in2="BackgroundImageFix"
         result="effect1_dropShadow_1_22"
         id="feBlend10" />
      <feBlend
         mode="normal"
         in="SourceGraphic"
         in2="effect1_dropShadow_1_22"
         result="shape"
         id="feBlend11" />
    </filter>
  </defs>
  <g
     id="g1"
     transform="matrix(0.88397888,0,0,0.88397888,-122.57818,59.75227)">
    <path
       d="m 157.7254,-53.249539 -1.00887,1.015179 -0.11584,0.149797 c 0.002,0.01654 0.002,0.03336 0,0.04992 l -0.0745,0.108185 v 0.04992 l -0.0743,0.133144 c -0.023,0.05693 -0.0423,0.115292 -0.0579,0.174738 0.46452,0.128076 0.88674,0.377884 1.22398,0.72395 0.49844,0.498206 0.79338,1.166139 0.82692,1.872274 0.017,0.392174 -0.0478,0.783586 -0.19034,1.149029 -0.14233,0.365443 -0.35935,0.696856 -0.63658,0.972881 l -1.30667,1.314755 -3.84553,3.794392 c -0.25875,0.277416 -0.57027,0.499387 -0.91609,0.652766 -0.34581,0.153379 -0.71888,0.234927 -1.09684,0.240072 -0.37794,0.005 -0.75299,-0.06669 -1.10277,-0.21092 -0.34976,-0.144043 -0.66705,-0.357631 -0.93292,-0.627998 -0.26587,-0.270366 -0.47483,-0.591777 -0.61443,-0.945196 -0.13959,-0.35342 -0.20694,-0.731533 -0.19801,-1.111742 0.009,-0.380209 0.0939,-0.754683 0.24996,-1.101091 0.15601,-0.34639 0.37985,-0.657568 0.65811,-0.91496 l 3.44846,-3.469951 v -0.09153 l -0.0495,-0.183064 c 0,-0.108166 -0.0579,-0.224677 -0.0827,-0.341169 -0.0248,-0.116492 0,-0.124818 0,-0.191391 -0.0246,-0.120798 -0.0412,-0.243101 -0.0495,-0.366128 v -0.166431 c 0,-0.183064 0,-0.366128 0,-0.549193 0,-0.183064 0,-0.266289 0,-0.399433 0,-0.133126 0,-0.09153 0,-0.141452 v -0.26627 c -0.004,-0.0136 -0.004,-0.02803 0,-0.04161 l -4.70566,4.718135 c -0.92119,0.924695 -1.43957,2.179737 -1.44113,3.489043 -0.002,1.309286 0.51386,2.565586 1.43286,3.492529 0.919,0.926944 2.16629,1.448433 3.46752,1.449958 1.30128,0.0017 2.54965,-0.516917 3.47088,-1.441765 l 5.04475,-5.059245 c 0.33305,-0.343646 0.6118,-0.736506 0.82691,-1.164958 0.54455,-1.033166 0.71145,-2.225866 0.47138,-3.370112 -0.057,-0.263641 -0.13433,-0.522404 -0.2315,-0.77387 -0.24598,-0.624606 -0.61752,-1.191232 -1.09175,-1.66425 -0.37954,-0.386287 -0.81777,-0.709316 -1.2983,-0.956933 z"
       fill="#ffffff"
       id="path1-3"
       style="stroke-width:0.190533" />
    <path
       d="m 152.84985,-51.378733 c 0,0.116492 0,0.224677 0,0.341169 0.008,0.622205 0.13223,1.237456 0.3664,1.814028 0.24769,0.624606 0.6219,1.191232 1.09937,1.66425 0.3765,0.384801 0.81587,0.702781 1.29925,0.9403 l 1.01592,-1.006872 0.12499,-0.141471 v -0.04992 l 0.0749,-0.108166 v -0.04994 l 0.0501,-0.116492 v -0.05825 c 0.0229,-0.04847 0.0425,-0.09852 0.0583,-0.149778 -0.44108,-0.144558 -0.84101,-0.392822 -1.16606,-0.72395 -0.49367,-0.493748 -0.78976,-1.150687 -0.83282,-1.847314 v -0.158105 c -0.002,-0.372873 0.0707,-0.742374 0.21359,-1.086782 0.14309,-0.344407 0.35363,-0.656748 0.61923,-0.918636 l 5.07199,-5.059322 c 0.53121,-0.534064 1.25295,-0.835431 2.00651,-0.837755 0.75356,-0.0023 1.4772,0.294507 2.01165,0.825275 0.53463,0.530768 0.83625,1.251955 0.83853,2.004923 0.002,0.752949 -0.29475,1.476003 -0.82596,2.010087 l -3.4978,3.469951 c 0,0.04159 0,0.08321 0.0415,0.116492 l 0.0501,0.174738 c 0,0.05826 0,0.108185 0,0.158105 0,0.04994 0,0.116511 0.0415,0.183064 l 0.0333,0.133144 c 0.004,0.06097 0.004,0.122113 0,0.183065 v 0.158104 c 0,0.05825 0,0.116511 0,0.183064 0,0.06657 0,0.09986 0,0.149798 0,0.04992 0,0.124818 0,0.183064 v 0.499273 c -0.004,0.06093 -0.004,0.122113 0,0.183064 0,0.04992 0,0.09986 0,0.158105 -0.004,0.05817 -0.004,0.116568 0,0.174737 0,0 0,0.05826 0,0.08322 l 4.73875,-4.718134 c 0.92771,-0.924714 1.44977,-2.179756 1.45129,-3.489043 0.002,-1.309286 -0.51749,-2.565567 -1.44291,-3.49248 -0.92561,-0.926909 -2.1816,-1.448519 -3.4919,-1.450079 -1.31048,-0.0015 -2.56781,0.517055 -3.49552,1.441757 l -5.08018,5.059306 c -0.34754,0.346085 -0.6421,0.741422 -0.87436,1.173303 -0.32448,0.61365 -0.51749,1.288138 -0.56645,1.98044 z"
       fill="#ffffff"
       id="path2-6"
       style="stroke-width:0.190533" />
  </g>
  <text
     xml:space="preserve"
     id="text1"
     style="white-space:pre;shape-inside:url(#rect1);fill:#1d2535;fill-opacity:1"
     transform="matrix(1.2612863,0,0,1.6698139,2.7340423,49.484153)"><tspan
       x="31.601562"
       y="-15.428628"
       id="tspan4"><tspan
         style="font-family:'Times New Roman';-inkscape-font-specification:'Times New Roman, '"
         id="tspan1">SAFE CHECK</tspan></tspan></text>
</svg>
