<?xml version="1.0" encoding="UTF-8" standalone="no"?>
<svg
   width="178"
   height="38"
   viewBox="0 0 178 38"
   fill="none"
   version="1.1"
   id="svg11"
   sodipodi:docname="logo.svg"
   inkscape:version="1.3 (0e150ed, 2023-07-21)"
   xmlns:inkscape="http://www.inkscape.org/namespaces/inkscape"
   xmlns:sodipodi="http://sodipodi.sourceforge.net/DTD/sodipodi-0.dtd"
   xmlns="http://www.w3.org/2000/svg"
   xmlns:svg="http://www.w3.org/2000/svg">
  <sodipodi:namedview
     id="namedview11"
     pagecolor="#505050"
     bordercolor="#eeeeee"
     borderopacity="1"
     inkscape:showpageshadow="0"
     inkscape:pageopacity="0"
     inkscape:pagecheckerboard="0"
     inkscape:deskcolor="#505050"
     showgrid="false"
     inkscape:zoom="4.3260634"
     inkscape:cx="64.492814"
     inkscape:cy="-7.0502897"
     inkscape:window-width="1920"
     inkscape:window-height="953"
     inkscape:window-x="0"
     inkscape:window-y="32"
     inkscape:window-maximized="1"
     inkscape:current-layer="svg11" />
  <path
     d="M0 8.42105C0 3.77023 3.77023 0 8.42105 0H23.5789C28.2298 0 32 3.77023 32 8.42105V23.5789C32 28.2298 28.2298 32 23.5789 32H8.42105C3.77023 32 0 28.2298 0 23.5789V8.42105Z"
     fill="#3C50E0"
     id="path1" />
  <defs
     id="defs11">
    <filter
       id="filter0_d_1_22"
       x="7.42139"
       y="6.23706"
       width="5.36841"
       height="20.5263"
       filterUnits="userSpaceOnUse"
       color-interpolation-filters="sRGB">
      <feFlood
         flood-opacity="0"
         result="BackgroundImageFix"
         id="feFlood5" />
      <feColorMatrix
         in="SourceAlpha"
         type="matrix"
         values="0 0 0 0 0 0 0 0 0 0 0 0 0 0 0 0 0 0 127 0"
         result="hardAlpha"
         id="feColorMatrix5" />
      <feOffset
         dy="0.5"
         id="feOffset5" />
      <feGaussianBlur
         stdDeviation="0.5"
         id="feGaussianBlur5" />
      <feComposite
         in2="hardAlpha"
         operator="out"
         id="feComposite5" />
      <feColorMatrix
         type="matrix"
         values="0 0 0 0 0 0 0 0 0 0 0 0 0 0 0 0 0 0 0.12 0"
         id="feColorMatrix6" />
      <feBlend
         mode="normal"
         in2="BackgroundImageFix"
         result="effect1_dropShadow_1_22"
         id="feBlend6" />
      <feBlend
         mode="normal"
         in="SourceGraphic"
         in2="effect1_dropShadow_1_22"
         result="shape"
         id="feBlend7" />
    </filter>
    <filter
       id="filter1_d_1_22"
       x="13.7368"
       y="12.9734"
       width="5.36839"
       height="13.7895"
       filterUnits="userSpaceOnUse"
       color-interpolation-filters="sRGB">
      <feFlood
         flood-opacity="0"
         result="BackgroundImageFix"
         id="feFlood7" />
      <feColorMatrix
         in="SourceAlpha"
         type="matrix"
         values="0 0 0 0 0 0 0 0 0 0 0 0 0 0 0 0 0 0 127 0"
         result="hardAlpha"
         id="feColorMatrix7" />
      <feOffset
         dy="0.5"
         id="feOffset7" />
      <feGaussianBlur
         stdDeviation="0.5"
         id="feGaussianBlur7" />
      <feComposite
         in2="hardAlpha"
         operator="out"
         id="feComposite7" />
      <feColorMatrix
         type="matrix"
         values="0 0 0 0 0 0 0 0 0 0 0 0 0 0 0 0 0 0 0.12 0"
         id="feColorMatrix8" />
      <feBlend
         mode="normal"
         in2="BackgroundImageFix"
         result="effect1_dropShadow_1_22"
         id="feBlend8" />
      <feBlend
         mode="normal"
         in="SourceGraphic"
         in2="effect1_dropShadow_1_22"
         result="shape"
         id="feBlend9" />
    </filter>
    <filter
       id="filter2_d_1_22"
       x="20.0522"
       y="8.7627"
       width="5.3685"
       height="18"
       filterUnits="userSpaceOnUse"
       color-interpolation-filters="sRGB">
      <feFlood
         flood-opacity="0"
         result="BackgroundImageFix"
         id="feFlood9" />
      <feColorMatrix
         in="SourceAlpha"
         type="matrix"
         values="0 0 0 0 0 0 0 0 0 0 0 0 0 0 0 0 0 0 127 0"
         result="hardAlpha"
         id="feColorMatrix9" />
      <feOffset
         dy="0.5"
         id="feOffset9" />
      <feGaussianBlur
         stdDeviation="0.5"
         id="feGaussianBlur9" />
      <feComposite
         in2="hardAlpha"
         operator="out"
         id="feComposite9" />
      <feColorMatrix
         type="matrix"
         values="0 0 0 0 0 0 0 0 0 0 0 0 0 0 0 0 0 0 0.12 0"
         id="feColorMatrix10" />
      <feBlend
         mode="normal"
         in2="BackgroundImageFix"
         result="effect1_dropShadow_1_22"
         id="feBlend10" />
      <feBlend
         mode="normal"
         in="SourceGraphic"
         in2="effect1_dropShadow_1_22"
         result="shape"
         id="feBlend11" />
    </filter>
  </defs>
  <g
     id="g1"
     transform="matrix(0.88397888,0,0,0.88397888,-122.57818,59.75227)">
    <path
       d="m 157.7254,-53.249539 -1.00887,1.015179 -0.11584,0.149797 c 0.002,0.01654 0.002,0.03336 0,0.04992 l -0.0745,0.108185 v 0.04992 l -0.0743,0.133144 c -0.023,0.05693 -0.0423,0.115292 -0.0579,0.174738 0.46452,0.128076 0.88674,0.377884 1.22398,0.72395 0.49844,0.498206 0.79338,1.166139 0.82692,1.872274 0.017,0.392174 -0.0478,0.783586 -0.19034,1.149029 -0.14233,0.365443 -0.35935,0.696856 -0.63658,0.972881 l -1.30667,1.314755 -3.84553,3.794392 c -0.25875,0.277416 -0.57027,0.499387 -0.91609,0.652766 -0.34581,0.153379 -0.71888,0.234927 -1.09684,0.240072 -0.37794,0.005 -0.75299,-0.06669 -1.10277,-0.21092 -0.34976,-0.144043 -0.66705,-0.357631 -0.93292,-0.627998 -0.26587,-0.270366 -0.47483,-0.591777 -0.61443,-0.945196 -0.13959,-0.35342 -0.20694,-0.731533 -0.19801,-1.111742 0.009,-0.380209 0.0939,-0.754683 0.24996,-1.101091 0.15601,-0.34639 0.37985,-0.657568 0.65811,-0.91496 l 3.44846,-3.469951 v -0.09153 l -0.0495,-0.183064 c 0,-0.108166 -0.0579,-0.224677 -0.0827,-0.341169 -0.0248,-0.116492 0,-0.124818 0,-0.191391 -0.0246,-0.120798 -0.0412,-0.243101 -0.0495,-0.366128 v -0.166431 c 0,-0.183064 0,-0.366128 0,-0.549193 0,-0.183064 0,-0.266289 0,-0.399433 0,-0.133126 0,-0.09153 0,-0.141452 v -0.26627 c -0.004,-0.0136 -0.004,-0.02803 0,-0.04161 l -4.70566,4.718135 c -0.92119,0.924695 -1.43957,2.179737 -1.44113,3.489043 -0.002,1.309286 0.51386,2.565586 1.43286,3.492529 0.919,0.926944 2.16629,1.448433 3.46752,1.449958 1.30128,0.0017 2.54965,-0.516917 3.47088,-1.441765 l 5.04475,-5.059245 c 0.33305,-0.343646 0.6118,-0.736506 0.82691,-1.164958 0.54455,-1.033166 0.71145,-2.225866 0.47138,-3.370112 -0.057,-0.263641 -0.13433,-0.522404 -0.2315,-0.77387 -0.24598,-0.624606 -0.61752,-1.191232 -1.09175,-1.66425 -0.37954,-0.386287 -0.81777,-0.709316 -1.2983,-0.956933 z"
       fill="#ffffff"
       id="path1-3"
       style="stroke-width:0.190533" />
    <path
       d="m 152.84985,-51.378733 c 0,0.116492 0,0.224677 0,0.341169 0.008,0.622205 0.13223,1.237456 0.3664,1.814028 0.24769,0.624606 0.6219,1.191232 1.09937,1.66425 0.3765,0.384801 0.81587,0.702781 1.29925,0.9403 l 1.01592,-1.006872 0.12499,-0.141471 v -0.04992 l 0.0749,-0.108166 v -0.04994 l 0.0501,-0.116492 v -0.05825 c 0.0229,-0.04847 0.0425,-0.09852 0.0583,-0.149778 -0.44108,-0.144558 -0.84101,-0.392822 -1.16606,-0.72395 -0.49367,-0.493748 -0.78976,-1.150687 -0.83282,-1.847314 v -0.158105 c -0.002,-0.372873 0.0707,-0.742374 0.21359,-1.086782 0.14309,-0.344407 0.35363,-0.656748 0.61923,-0.918636 l 5.07199,-5.059322 c 0.53121,-0.534064 1.25295,-0.835431 2.00651,-0.837755 0.75356,-0.0023 1.4772,0.294507 2.01165,0.825275 0.53463,0.530768 0.83625,1.251955 0.83853,2.004923 0.002,0.752949 -0.29475,1.476003 -0.82596,2.010087 l -3.4978,3.469951 c 0,0.04159 0,0.08321 0.0415,0.116492 l 0.0501,0.174738 c 0,0.05826 0,0.108185 0,0.158105 0,0.04994 0,0.116511 0.0415,0.183064 l 0.0333,0.133144 c 0.004,0.06097 0.004,0.122113 0,0.183065 v 0.158104 c 0,0.05825 0,0.116511 0,0.183064 0,0.06657 0,0.09986 0,0.149798 0,0.04992 0,0.124818 0,0.183064 v 0.499273 c -0.004,0.06093 -0.004,0.122113 0,0.183064 0,0.04992 0,0.09986 0,0.158105 -0.004,0.05817 -0.004,0.116568 0,0.174737 0,0 0,0.05826 0,0.08322 l 4.73875,-4.718134 c 0.92771,-0.924714 1.44977,-2.179756 1.45129,-3.489043 0.002,-1.309286 -0.51749,-2.565567 -1.44291,-3.49248 -0.92561,-0.926909 -2.1816,-1.448519 -3.4919,-1.450079 -1.31048,-0.0015 -2.56781,0.517055 -3.49552,1.441757 l -5.08018,5.059306 c -0.34754,0.346085 -0.6421,0.741422 -0.87436,1.173303 -0.32448,0.61365 -0.51749,1.288138 -0.56645,1.98044 z"
       fill="#ffffff"
       id="path2-6"
       style="stroke-width:0.190533" />
  </g>
  <path
     d="m 46.649344,14.846049 -0.07234,0.03381 c -0.427297,-0.381926 -0.939634,-0.684223 -1.537154,-0.906891 -0.592081,-0.222755 -1.241685,-0.328483 -1.94883,-0.317185 -0.680086,0.01083 -1.301873,0.128615 -1.865189,0.353761 -0.56343,0.219448 -1.047022,0.535066 -1.450802,0.946339 -0.398381,0.411186 -0.706224,0.913189 -0.923541,1.504972 -0.217309,0.592303 -0.319972,1.263115 -0.307982,2.013476 0.0132,0.826016 0.133492,1.596416 0.36088,2.310679 0.227298,0.70908 0.558354,1.322166 0.993157,1.838739 0.434811,0.51709 0.9731,0.921085 1.614907,1.21354 0.647113,0.286666 1.397093,0.422928 2.249949,0.409301 0.30771,-0.0049 0.614853,-0.04197 0.921475,-0.111648 0.306676,-0.06969 0.599352,-0.169222 0.878082,-0.297558 0.284032,-0.134123 0.548753,-0.292299 0.794179,-0.474528 0.250784,-0.187497 0.476873,-0.398962 0.67832,-0.634395 l 0.08992,0.05506 -0.621356,1.662384 c -0.402328,0.162966 -0.84847,0.288793 -1.338381,0.377482 -0.484435,0.0943 -0.974951,0.145161 -1.471546,0.153095 -0.99863,0.01596 -1.915912,-0.11245 -2.751742,-0.385215 -0.830537,-0.278036 -1.549626,-0.677069 -2.157247,-1.196582 -0.602233,-0.5196 -1.07659,-1.146463 -1.423077,-1.880594 -0.341175,-0.739398 -0.519012,-1.562785 -0.533501,-2.469641 -0.0082,-0.512505 0.04852,-1.018271 0.170133,-1.517299 0.127019,-0.498595 0.313795,-0.974302 0.560344,-1.426083 0.246539,-0.452301 0.553074,-0.867202 0.919579,-1.245743 0.366425,-0.383722 0.784949,-0.71696 1.255566,-1.000235 0.47602,-0.282842 0.998916,-0.504233 1.568709,-0.664691 0.575041,-0.165726 1.197293,-0.253937 1.866603,-0.264631 1.041795,-0.01665 2.010583,0.127005 2.906365,0.431469 z m 7.093743,-2.089241 c 0.901468,-0.01441 1.735086,0.120523 2.500971,0.405292 0.77114,0.279502 1.439012,0.681945 2.003531,1.207331 0.564438,0.520203 1.00918,1.150132 1.334123,1.889789 0.325008,0.740176 0.4947,1.560583 0.509113,2.462257 0.0083,0.512504 -0.04313,1.018184 -0.15397,1.517039 -0.110788,0.498337 -0.278749,0.970633 -0.503784,1.416887 -0.219633,0.446687 -0.493793,0.861073 -0.822409,1.244709 -0.328708,0.377417 -0.706797,0.707419 -1.134222,0.989484 -0.42217,0.276799 -0.891085,0.495253 -1.406883,0.654331 -0.515705,0.164777 -1.073183,0.251952 -1.672324,0.261526 -0.901468,0.01441 -1.737759,-0.115295 -2.5088,-0.389098 -0.765793,-0.279069 -1.430882,-0.678964 -1.995318,-1.199167 -0.564438,-0.520204 -1.009133,-1.147542 -1.333995,-1.882018 -0.324999,-0.739657 -0.494746,-1.563173 -0.509241,-2.47003 -0.0083,-0.512503 0.04313,-1.018184 0.153915,-1.517037 0.110844,-0.498338 0.276056,-0.973701 0.495571,-1.425051 0.224988,-0.451955 0.499104,-0.86634 0.822418,-1.244189 0.32867,-0.383119 0.704022,-0.715668 1.126045,-0.998165 0.427425,-0.282067 0.89906,-0.502639 1.414848,-0.662233 0.52109,-0.164864 1.081215,-0.252083 1.680411,-0.261657 z m 0.642498,11.32005 c 0.599151,-0.0096 1.14532,-0.126114 1.638519,-0.35014 0.493143,-0.224026 0.914572,-0.543833 1.264285,-0.959426 0.355096,-0.416196 0.627829,-0.92023 0.818151,-1.511582 0.190221,-0.597053 0.279398,-1.27076 0.267403,-2.02112 -0.01328,-0.831199 -0.122783,-1.59866 -0.328405,-2.302904 -0.200276,-0.709513 -0.49351,-1.320093 -0.879657,-1.83226 -0.386193,-0.517868 -0.865053,-0.917629 -1.436522,-1.200322 -0.566113,-0.287961 -1.224324,-0.425688 -1.974634,-0.4137 -0.599196,0.0096 -1.145367,0.126114 -1.63851,0.35014 -0.493234,0.218325 -0.917492,0.532996 -1.27268,0.943492 -0.349805,0.410409 -0.619826,0.911807 -0.81014,1.50316 -0.190368,0.591873 -0.279536,1.262468 -0.26755,2.012829 0.01319,0.826017 0.120008,1.596631 0.320412,2.311326 0.200321,0.709512 0.493601,1.323201 0.879794,1.840551 0.386239,0.517867 0.865171,0.922809 1.436769,1.216385 0.571507,0.287876 1.232456,0.42556 1.982765,0.413571 z m 7.894753,-11.262079 8.481663,8.740994 -0.09111,-5.700245 c -0.0074,-0.45913 -0.01914,-0.858578 -0.03534,-1.198347 -0.01629,-0.344952 -0.03726,-0.641624 -0.06281,-0.8895 -0.02564,-0.253574 -0.05604,-0.463534 -0.09111,-0.630396 -0.02967,-0.166949 -0.06162,-0.306907 -0.09576,-0.419877 l -5.14e-4,-0.03213 1.441229,-0.02303 5.13e-4,0.03213 c -0.03059,0.114004 -0.05806,0.254912 -0.08232,0.422723 -0.02427,0.167811 -0.04524,0.37859 -0.06273,0.632856 -0.01758,0.248565 -0.02912,0.545754 -0.03434,0.891049 -0.0055,0.340116 -0.0046,0.739738 0.0028,1.198867 l 0.137379,8.598559 -0.283401,0.0046 -8.481698,-8.732704 0.08845,5.538565 c 0.0074,0.458611 0.01914,0.86065 0.03543,1.206121 0.0163,0.339768 0.03709,0.633849 0.06273,0.881725 0.02555,0.247875 0.05311,0.455286 0.08287,0.622235 0.02967,0.166948 0.06163,0.306908 0.09581,0.419877 l 5.13e-4,0.03213 -1.441275,0.02303 -5.13e-4,-0.03213 c 0.03059,-0.114005 0.05806,-0.254913 0.08232,-0.422724 0.02967,-0.167897 0.05338,-0.376128 0.07097,-0.624692 0.01768,-0.248566 0.02912,-0.543165 0.03452,-0.883279 0.0055,-0.345814 0.0046,-0.748026 -0.0028,-1.206638 l -0.08424,-5.271172 c -0.0074,-0.459129 -0.01914,-0.858578 -0.03534,-1.198347 -0.0163,-0.344951 -0.03726,-0.641623 -0.06281,-0.889498 -0.02564,-0.253575 -0.05595,-0.463535 -0.09102,-0.630398 -0.02967,-0.166948 -0.06162,-0.306907 -0.09581,-0.419877 l -5.12e-4,-0.03213 z m 12.258793,-0.195867 8.481617,8.740995 -0.09111,-5.700245 c -0.0074,-0.45913 -0.01914,-0.858579 -0.03534,-1.198349 -0.0163,-0.344951 -0.03726,-0.641623 -0.06282,-0.889497 -0.02564,-0.253576 -0.05595,-0.463536 -0.09102,-0.630398 -0.02967,-0.166949 -0.06162,-0.306907 -0.0958,-0.419877 l -5.13e-4,-0.03213 1.441228,-0.02303 5.14e-4,0.03213 c -0.0305,0.114004 -0.05797,0.254912 -0.08232,0.422723 -0.02427,0.167811 -0.04524,0.378591 -0.06273,0.632855 -0.01758,0.248565 -0.02912,0.545755 -0.03434,0.891051 -0.0055,0.340114 -0.0046,0.739736 0.0028,1.198865 l 0.137378,8.59856 -0.2834,0.0046 -8.481534,-8.732702 0.08854,5.538565 c 0.0074,0.458611 0.01914,0.86065 0.03552,1.20612 0.0162,0.339769 0.03718,0.63385 0.06264,0.881726 0.02555,0.247874 0.0532,0.455285 0.08287,0.622234 0.02967,0.166949 0.06153,0.306909 0.09576,0.419878 l 5.21e-4,0.03213 -1.441238,0.02303 -5.12e-4,-0.03213 c 0.03059,-0.114005 0.05806,-0.254911 0.08232,-0.422723 0.02976,-0.167898 0.05338,-0.376128 0.07106,-0.624693 0.01758,-0.248566 0.02911,-0.543164 0.03443,-0.883277 0.0055,-0.345816 0.0046,-0.748028 -0.0028,-1.20664 l -0.08433,-5.271174 c -0.0074,-0.459129 -0.01914,-0.858579 -0.03534,-1.198347 -0.0163,-0.344952 -0.03718,-0.641624 -0.06281,-0.8895 -0.02564,-0.253574 -0.05595,-0.463533 -0.09111,-0.630395 -0.02967,-0.166951 -0.06153,-0.306909 -0.09576,-0.419879 l -5.13e-4,-0.03213 z m 11.805317,-0.188621 c 0.674756,-0.01083 1.344076,-0.02408 2.00811,-0.04038 0.668925,-0.01587 1.281862,-0.03136 1.837823,-0.04544 0.555335,-0.01975 1.030313,-0.04082 1.424408,-0.06319 0.393593,-0.02236 0.660629,-0.0484 0.800116,-0.07758 l -0.37922,1.083162 c -0.179052,-0.04585 -0.387529,-0.08555 -0.625476,-0.119592 -0.205729,-0.02938 -0.457534,-0.0549 -0.754901,-0.07709 -0.291738,-0.02747 -0.62935,-0.03867 -1.012814,-0.03254 -0.12956,0.0021 -0.285965,0.01027 -0.469239,0.02409 -0.178171,0.008 -0.35061,0.01908 -0.517821,0.03212 -0.194149,0.01399 -0.390899,0.02802 -0.590744,0.0421 l 0.0706,4.4208 c 0.55595,-0.01406 1.057823,-0.03867 1.505631,-0.07278 0.447306,-0.0341 0.827755,-0.06714 1.14032,-0.09909 0.366378,-0.03799 0.689641,-0.08099 0.96981,-0.12901 l -0.232564,1.178264 c -0.372844,-0.04276 -0.754455,-0.08228 -1.143793,-0.119602 -0.334854,-0.03248 -0.700193,-0.05878 -1.094445,-0.07944 -0.394366,-0.02635 -0.772904,-0.03637 -1.134621,-0.0306 l 0.08113,5.076846 c 0.637397,-0.01016 1.222538,-0.04649 1.755942,-0.108912 0.533403,-0.06243 0.999313,-0.132075 1.39773,-0.208934 0.463107,-0.08256 0.885577,-0.178461 1.266897,-0.287184 l -0.213803,1.315324 c -0.06488,-0.0041 -0.161855,-0.0084 -0.291482,-0.01141 -0.129637,-0.0037 -0.275858,-0.0065 -0.437635,-0.0096 -0.156572,-0.0027 -0.324044,-0.0052 -0.502404,-0.008 -0.172552,0.0028 -0.337377,0.0028 -0.493961,1.17e-4 -0.156495,0.0025 -0.296976,0.0017 -0.420918,-0.0016 -0.119186,0.0019 -0.205205,0.0034 -0.259108,0.0041 l -3.498078,0.05589 -5.13e-4,-0.03213 c 0.03059,-0.114004 0.05806,-0.254912 0.08232,-0.422723 0.02967,-0.167898 0.05338,-0.37613 0.07106,-0.624694 0.01758,-0.248564 0.02911,-0.543163 0.03443,-0.883277 0.0055,-0.345815 0.0046,-0.748028 -0.0028,-1.206639 l -0.08424,-5.271172 c -0.0074,-0.45913 -0.01914,-0.858577 -0.03543,-1.198347 -0.0163,-0.344952 -0.03727,-0.641624 -0.06282,-0.889499 -0.02564,-0.253575 -0.05604,-0.463534 -0.09111,-0.630397 -0.02967,-0.166948 -0.06163,-0.306907 -0.09581,-0.419876 z m 17.550192,1.50111 -0.072,0.0338 c -0.4275,-0.381921 -0.93979,-0.68422 -1.53736,-0.906886 -0.59187,-0.222759 -1.24148,-0.328487 -1.94882,-0.317185 -0.679898,0.01083 -1.302089,0.128618 -1.86504,0.353759 -0.563544,0.219448 -1.047298,0.535071 -1.451254,0.946345 -0.398238,0.411184 -0.705889,0.913183 -0.923467,1.504972 -0.217042,0.592297 -0.319846,1.263113 -0.307863,2.013472 0.01318,0.826018 0.133323,1.59642 0.360884,2.31068 0.227472,0.709078 0.558641,1.322162 0.992971,1.838742 0.434843,0.517091 0.973115,0.921086 1.615352,1.213532 0.646785,0.286673 1.396937,0.422932 2.249887,0.409304 0.3073,-0.0049 0.6146,-0.04196 0.92138,-0.111648 0.30678,-0.06969 0.59909,-0.169219 0.87797,-0.297557 0.28398,-0.134122 0.54892,-0.292301 0.79429,-0.474529 0.25099,-0.187501 0.47672,-0.39896 0.67821,-0.634395 l 0.09,0.05506 -0.62135,1.662385 c -0.40223,0.162963 -0.84857,0.288793 -1.33855,0.377483 -0.48417,0.09429 -0.97475,0.145159 -1.4717,0.153098 -0.998579,0.01595 -1.915501,-0.112456 -2.751262,-0.385223 -0.83067,-0.278032 -1.549758,-0.677066 -2.157255,-1.196581 -0.602326,-0.519598 -1.076768,-1.146462 -1.423336,-1.88059 -0.340962,-0.739402 -0.518953,-1.562785 -0.533437,-2.469644 -0.0078,-0.512503 0.04858,-1.018269 0.17013,-1.517296 0.126801,-0.498593 0.313581,-0.974299 0.560349,-1.426085 0.246746,-0.452303 0.553203,-0.867204 0.919324,-1.245737 0.366546,-0.383725 0.78522,-0.716966 1.25601,-1.000243 0.475983,-0.282841 0.998554,-0.504227 1.568239,-0.664684 0.575291,-0.16573 1.197438,-0.253939 1.866968,-0.264636 1.04158,-0.01664 2.01058,0.127005 2.90645,0.431467 z m 4.86545,-1.146548 c -0.63688,0.01016 -1.21161,0.04891 -1.72316,0.116685 -0.51217,0.06209 -0.95378,0.128238 -1.32533,0.198965 -0.43036,0.08825 -0.81501,0.183038 -1.15339,0.285891 l 0.21379,-1.315325 c 0.0649,0.0041 0.16238,0.0084 0.29201,0.0114 0.12963,0.0031 0.27275,0.0065 0.42932,0.0092 0.16178,0.0031 0.32925,0.0056 0.5024,0.008 0.17775,-0.0028 0.34518,-0.0023 0.50176,2.77e-4 0.1565,-0.0025 0.29438,-0.0021 0.41314,0.0018 0.12436,-0.002 0.2135,-0.0034 0.26738,-0.0042 l 4.62343,-0.07387 c 0.0539,-8.8e-4 0.13991,-0.0022 0.2591,-0.0041 0.12376,-0.0077 0.26416,-0.01251 0.42065,-0.01502 0.15641,-0.0077 0.32115,-0.01342 0.49372,-0.01618 0.17818,-0.008 0.34548,-0.01589 0.50189,-0.02409 0.16211,-0.0078 0.30763,-0.0158 0.4371,-0.02306 0.12947,-0.0073 0.22627,-0.01451 0.29097,-0.02073 l 0.2557,1.307823 c -0.34668,-0.09191 -0.73675,-0.17431 -1.17023,-0.248764 -0.3731,-0.05883 -0.81711,-0.110822 -1.33048,-0.15653 -0.51397,-0.0514 -1.08913,-0.07175 -1.72601,-0.06157 l 0.12355,7.732641 c 0.008,0.458611 0.019,0.860654 0.0353,1.206122 0.0215,0.339685 0.0428,0.633762 0.0629,0.881724 0.0251,0.24788 0.0529,0.455291 0.0825,0.62224 0.0353,0.166859 0.0697,0.306779 0.10418,0.419744 l 5.2e-4,0.03213 -1.9355,0.03092 -5.2e-4,-0.03213 c 0.0308,-0.114008 0.0582,-0.254912 0.0824,-0.422724 0.0242,-0.16781 0.0453,-0.375998 0.0631,-0.624566 0.0178,-0.248568 0.0293,-0.543164 0.0346,-0.883281 0.006,-0.345815 0.004,-0.748024 -0.002,-1.206635 z m 7.13517,10.625409 c 0.0792,-0.103898 0.20395,-0.243767 0.37376,-0.419086 0.16971,-0.18102 0.36642,-0.392015 0.58909,-0.632972 0.22308,-0.246664 0.46129,-0.520523 0.71565,-0.821595 0.25435,-0.30107 0.50832,-0.626496 0.7619,-0.97576 0.25359,-0.349782 0.49647,-0.720645 0.72759,-1.113089 0.23674,-0.398237 0.44317,-0.811539 0.61981,-1.240952 0.17662,-0.429414 0.31568,-0.874295 0.41613,-1.335146 0.1062,-0.460424 0.15513,-0.931336 0.14746,-1.411712 -0.008,-0.512505 -0.0775,-0.954057 -0.20724,-1.324667 -0.12471,-0.375875 -0.29446,-0.683645 -0.50873,-0.923322 -0.21488,-0.24485 -0.46602,-0.424328 -0.75398,-0.538945 -0.28277,-0.114182 -0.58841,-0.168389 -0.91799,-0.163123 -0.4099,0.0065 -0.78137,0.08246 -1.11388,0.228243 -0.32691,0.139991 -0.613,0.304209 -0.85881,0.491628 -0.23959,0.18732 -0.43668,0.373959 -0.59025,0.559905 -0.14838,0.186378 -0.24823,0.327926 -0.30108,0.426218 l -0.11374,-0.04691 0.52407,-1.652537 c 0.28397,-0.13412 0.5496,-0.248771 0.79636,-0.344458 0.25235,-0.101486 0.5045,-0.183778 0.75748,-0.247428 0.25816,-0.06322 0.52176,-0.110453 0.79131,-0.142227 0.27465,-0.03653 0.57702,-0.05742 0.90608,-0.06269 0.22127,-0.0035 0.4564,0.01707 0.7054,0.0613 0.24951,0.04474 0.49639,0.11906 0.74063,0.222971 0.24476,0.104423 0.47658,0.241187 0.69491,0.410305 0.22395,0.163845 0.42159,0.368539 0.59294,0.614086 0.17696,0.240272 0.31622,0.521576 0.41882,0.843897 0.10776,0.322239 0.16499,0.690899 0.17163,1.106498 0.008,0.443065 -0.0536,0.889286 -0.18127,1.339685 -0.12817,0.444709 -0.29895,0.884394 -0.51331,1.320112 -0.21446,0.430017 -0.46169,0.852265 -0.74119,1.267253 -0.2795,0.41447 -0.56758,0.810935 -0.86375,1.187832 -0.29667,0.377425 -0.5906,0.733035 -0.88226,1.067356 -0.29177,0.328104 -0.55389,0.629299 -0.78744,0.903083 l 3.11752,-0.04982 c 0.20002,-0.0032 0.39432,-0.0089 0.58286,-0.01708 0.19415,-0.01399 0.3722,-0.03031 0.53362,-0.04947 0.16184,-0.02383 0.30185,-0.05302 0.42,-0.08757 0.12334,-0.03411 0.21753,-0.07605 0.28152,-0.12579 l 0.0322,-5.12e-4 0.0276,1.724583 -7.10873,0.113581 z m 8.1472,-5.92e-4 c 0.0583,-0.08749 0.12354,-0.215529 0.19652,-0.384117 0.0729,-0.17377 0.12853,-0.390805 0.16792,-0.650602 0.053,-0.378716 0.111,-0.803642 0.17401,-1.27426 0.0676,-0.476395 0.13528,-0.974043 0.20266,-1.493455 0.0725,-0.519496 0.14235,-1.049833 0.20939,-1.59101 0.0721,-0.546443 0.13925,-1.081919 0.20136,-1.606433 0.0672,-0.530295 0.12906,-1.038734 0.18606,-1.525844 0.0621,-0.492376 0.11715,-0.941098 0.16457,-1.346676 0.048,-0.406105 0.0853,-0.757617 0.11273,-1.055061 0.0331,-0.302717 0.0563,-0.530122 0.0705,-0.681184 l 1.02811,-0.01643 5.24504,9.440627 4.90036,-9.602728 0.76901,-0.01228 1.48184,9.597684 c 0.0427,0.302026 0.0872,0.560482 0.13368,0.775368 0.047,0.215396 0.093,0.400744 0.13849,0.556555 0.046,0.150619 0.0883,0.276933 0.12785,0.378933 0.0445,0.09622 0.0862,0.176411 0.12516,0.241101 l 5.1e-4,0.03213 -2.04018,0.0326 -5.1e-4,-0.03213 c 0.026,-0.06002 0.0488,-0.157837 0.0679,-0.292908 0.0248,-0.135164 0.0356,-0.297577 0.0327,-0.486203 -9.1e-4,-0.07047 -0.004,-0.140393 -0.0112,-0.210785 -0.008,-0.07557 -0.016,-0.156283 -0.0283,-0.242649 l -1.15255,-7.740039 -4.6332,9.064054 -0.55967,-0.05637 -4.95382,-8.926426 c -0.16818,1.281943 -0.31408,2.467116 -0.4372,3.553961 -0.0516,0.465256 -0.10385,0.930518 -0.15548,1.395773 -0.0523,0.459563 -0.0993,0.889497 -0.14163,1.28981 -0.0366,0.400223 -0.0662,0.754201 -0.0882,1.062445 -0.0221,0.302543 -0.0321,0.527141 -0.0297,0.672756 0.002,0.183445 0.0112,0.34556 0.0238,0.485301 0.0131,0.14026 0.0259,0.258754 0.0384,0.356003 0.0179,0.11323 0.0355,0.212468 0.053,0.298752 l -1.61938,0.02587 z m 25.49772,-0.375257 -5.2e-4,-0.03213 c 0.0101,-0.02764 0.0181,-0.06818 0.0225,-0.122167 0.004,-0.05398 0.007,-0.102736 0.007,-0.145747 -0.002,-0.16738 -0.0299,-0.350434 -0.0819,-0.549684 -0.0462,-0.204003 -0.13688,-0.45654 -0.27126,-0.756583 l -1.01459,-2.18672 c -0.30281,-0.006 -0.70502,-0.0054 -1.20717,0.0027 -0.50161,0.008 -1.04417,0.01668 -1.62715,0.026 -0.42648,0.0068 -0.83949,0.01341 -1.23903,0.0198 -0.39384,0.0064 -0.75026,0.01769 -1.06827,0.03366 l -0.89707,2.15247 c -0.0776,0.200801 -0.16069,0.420866 -0.24862,0.659668 -0.0879,0.239321 -0.13021,0.479987 -0.12632,0.723025 9.2e-4,0.06996 0.008,0.129459 0.0194,0.177996 0.0112,0.04285 0.0224,0.07221 0.0335,0.08862 l 5.2e-4,0.03213 -1.65204,0.0264 -5.1e-4,-0.03213 c 0.0958,-0.104166 0.21416,-0.286952 0.35616,-0.548389 0.14137,-0.267129 0.29521,-0.598731 0.46199,-0.995849 l 4.47505,-10.365144 0.64776,-0.01039 4.55453,9.824343 c 0.10631,0.230517 0.21512,0.455291 0.32646,0.674842 0.11694,0.214278 0.22522,0.406924 0.32541,0.577929 0.0996,0.171533 0.18854,0.315764 0.26609,0.433224 0.0775,0.11746 0.13006,0.192298 0.15752,0.224515 l 5.2e-4,0.03213 z m -5.31914,-4.442162 c 0.31351,-0.005 0.63428,-0.01016 0.96386,-0.0154 0.32896,-0.01094 0.65022,-0.01868 0.96321,-0.02369 0.31861,-0.01027 0.62326,-0.01825 0.91501,-0.02292 0.29115,-0.0098 0.55586,-0.01925 0.79312,-0.02874 l -2.35759,-5.105266 -2.15182,5.209971 z m 10.19978,1.197664 c 0.008,0.458611 0.019,0.860654 0.0353,1.206123 0.0221,0.339676 0.0428,0.63376 0.0629,0.881723 0.0257,0.247871 0.0534,0.455282 0.0831,0.622231 0.0348,0.166868 0.0697,0.306779 0.10363,0.419752 l 5.2e-4,0.03213 -1.94328,0.03105 -5.1e-4,-0.03213 c 0.0308,-0.114009 0.0582,-0.254914 0.0824,-0.422725 0.0295,-0.167893 0.0536,-0.376132 0.0709,-0.624691 0.0178,-0.248567 0.0293,-0.543164 0.0346,-0.88328 0.006,-0.345816 0.004,-0.748025 -0.002,-1.206636 l -0.0842,-5.271172 c -0.008,-0.459129 -0.019,-0.858581 -0.0352,-1.19835 -0.0164,-0.34495 -0.0372,-0.641625 -0.0629,-0.889496 -0.0252,-0.25358 -0.0562,-0.463532 -0.0909,-0.6304 -0.0296,-0.16695 -0.0614,-0.306911 -0.0958,-0.419875 l -5.1e-4,-0.03213 c 0.10798,0.0092 0.2216,0.01771 0.34044,0.02669 0.10274,0.0093 0.2164,0.01572 0.34085,0.01892 0.12955,-0.0021 0.26169,-0.0042 0.39643,-0.0064 0.21039,-0.0034 0.49346,-0.03225 0.84921,-0.08664 0.36085,-0.05968 0.81902,-0.09395 1.37505,-0.102837 0.5182,-0.0083 0.99712,0.05456 1.43671,0.187489 0.4448,0.133362 0.83103,0.332452 1.15974,0.597254 0.32768,0.264818 0.58429,0.592454 0.76887,0.983958 0.18964,0.385723 0.28844,0.826803 0.29638,1.323243 0.007,0.388653 -0.0394,0.751179 -0.13658,1.087578 -0.0917,0.331127 -0.22729,0.632892 -0.40694,0.905298 -0.17343,0.272823 -0.38568,0.516723 -0.63623,0.731171 -0.25013,0.209258 -0.53083,0.386349 -0.84158,0.531783 l 2.90561,3.94632 c 0.14363,0.197784 0.27594,0.368275 0.39693,0.511994 0.12671,0.144148 0.24476,0.266143 0.3542,0.367025 0.11512,0.100794 0.22428,0.18561 0.328,0.253927 0.10363,0.06314 0.2097,0.11535 0.31817,0.157156 l 5.2e-4,0.03213 -2.33968,0.03739 c -0.0178,-0.102345 -0.0743,-0.236211 -0.16867,-0.402125 -0.0888,-0.171706 -0.19411,-0.340038 -0.31544,-0.505521 l -2.93183,-3.99413 c -0.26386,0.03117 -0.53621,0.049 -0.81708,0.05349 -0.28035,0.0045 -0.56679,-0.01531 -0.85932,-0.05935 z m -0.0392,-2.453696 c 0.53065,0.08897 1.01384,0.09473 1.45007,0.01726 0.44144,-0.07703 0.81674,-0.236972 1.12595,-0.479309 0.31489,-0.242949 0.55539,-0.567642 0.72148,-0.975635 0.17172,-0.412748 0.25291,-0.911129 0.2436,-1.49411 -0.007,-0.404717 -0.0584,-0.770868 -0.15544,-1.09898 -0.0969,-0.327594 -0.23876,-0.603676 -0.42634,-0.827192 -0.18144,-0.229315 -0.41127,-0.403951 -0.68841,-0.523405 -0.27725,-0.125156 -0.59956,-0.184797 -0.96697,-0.178926 -0.23163,0.0037 -0.43408,0.01782 -0.60631,0.04183 -0.17282,0.01883 -0.31813,0.04034 -0.43645,0.06399 -0.13999,0.02919 -0.2556,0.06058 -0.34681,0.09417 z m 8.17793,5.458038 c 0.0308,-0.114008 0.0582,-0.254914 0.0824,-0.422725 0.0299,-0.1679 0.0536,-0.376131 0.0709,-0.62469 0.0178,-0.248568 0.0293,-0.543165 0.0346,-0.883279 0.006,-0.345817 0.004,-0.748034 -0.002,-1.206645 l -0.0843,-5.27117 c -0.008,-0.459129 -0.0194,-0.858574 -0.0357,-1.198342 -0.0164,-0.34495 -0.0372,-0.641624 -0.0629,-0.889496 -0.0252,-0.25358 -0.0556,-0.463541 -0.0909,-0.630399 -0.0297,-0.16695 -0.0614,-0.306912 -0.0958,-0.419877 l -5.1e-4,-0.03213 1.94327,-0.03105 5.1e-4,0.03213 c -0.0303,0.114 -0.0608,0.254954 -0.0902,0.422848 -0.0242,0.16781 -0.0453,0.378591 -0.063,0.632858 -0.0121,0.248477 -0.0234,0.545665 -0.0344,0.891054 -0.006,0.340107 -0.004,0.739733 0.002,1.198862 l 0.0288,1.805423 4.66691,-3.937727 c 0.52218,-0.440117 0.78103,-0.816937 0.77604,-1.129933 l 2.27491,-0.03635 5.1e-4,0.03213 c -0.31697,0.08075 -0.63852,0.231533 -0.96464,0.452891 -0.32051,0.215564 -0.66202,0.48019 -1.02399,0.793865 l -4.12187,3.564628 5.11636,5.441645 c 0.21383,0.21273 0.395,0.390735 0.54293,0.534024 0.15357,0.138015 0.2876,0.254573 0.40265,0.350181 0.11442,0.08992 0.21829,0.166527 0.31104,0.229838 0.0984,0.05752 0.19933,0.115513 0.30237,0.173476 l 5.1e-4,0.03213 -2.37234,0.0379 c -0.0221,-0.04838 -0.0609,-0.10995 -0.11594,-0.18423 -0.0499,-0.07487 -0.11078,-0.152176 -0.182,-0.231898 -0.0661,-0.08032 -0.14049,-0.162587 -0.2227,-0.247836 -0.077,-0.08533 -0.15089,-0.165011 -0.22257,-0.239543 l -5.16586,-5.489578 0.0531,3.320134 c 0.008,0.458611 0.0194,0.860646 0.0354,1.206122 0.0221,0.339677 0.0428,0.633761 0.0627,0.881723 0.0257,0.247872 0.0534,0.455284 0.0831,0.622232 0.0348,0.166867 0.0697,0.306779 0.10363,0.419752 l 5e-4,0.03213 -1.94326,0.03105 z"
     fill="#ffffff"
     id="path3-7"
     style="stroke-width:0.51827" />
</svg>
